<svg width="14" height="17" viewBox="0 0 14 17" fill="none" xmlns="http://www.w3.org/2000/svg">
<path d="M10.3203 12.1797V7.17969C10.3203 6.11198 10.0208 5.22656 9.42188 4.52344C8.82292 3.79427 8.01562 3.42969 7 3.42969C5.98438 3.42969 5.17708 3.79427 4.57812 4.52344C3.97917 5.22656 3.67969 6.11198 3.67969 7.17969V12.1797H10.3203ZM12 11.3203L13.6797 13V13.8203H0.320312V13L2 11.3203V7.17969C2 5.8776 2.32552 4.74479 2.97656 3.78125C3.65365 2.81771 4.57812 2.19271 5.75 1.90625V1.32031C5.75 0.981771 5.86719 0.695312 6.10156 0.460938C6.33594 0.200521 6.63542 0.0703125 7 0.0703125C7.36458 0.0703125 7.66406 0.200521 7.89844 0.460938C8.13281 0.695312 8.25 0.981771 8.25 1.32031V1.90625C9.42188 2.19271 10.3333 2.81771 10.9844 3.78125C11.6615 4.74479 12 5.8776 12 7.17969V11.3203ZM8.17188 15.8516C7.83333 16.1641 7.44271 16.3203 7 16.3203C6.55729 16.3203 6.16667 16.1641 5.82812 15.8516C5.48958 15.513 5.32031 15.1224 5.32031 14.6797H8.67969C8.67969 15.1224 8.51042 15.513 8.17188 15.8516Z" fill="white"/>
</svg>
