<svg width="22" height="22" viewBox="0 0 22 22" fill="none" xmlns="http://www.w3.org/2000/svg">
<path d="M10.0833 7.33332V10.0833H7.33331V11.9166H10.0833V14.6666H11.9166V11.9166H14.6666V10.0833H11.9166V7.33332H10.0833ZM11.9166 1.87915V4.65665C15.0241 5.10582 17.4166 7.76415 17.4166 11C17.4166 11.825 17.2516 12.6041 16.9766 13.3283L19.36 14.7308C19.8733 13.5941 20.1666 12.3292 20.1666 11C20.1666 6.25165 16.5458 2.33748 11.9166 1.87915ZM11 17.4167C7.45248 17.4167 4.58331 14.5475 4.58331 11C4.58331 7.76415 6.97581 5.10582 10.0833 4.65665V1.87915C5.44498 2.33748 1.83331 6.24248 1.83331 11C1.83331 16.06 5.93081 20.1667 10.9908 20.1667C14.025 20.1667 16.7108 18.6908 18.3791 16.4175L15.9958 15.015C15.3978 15.7658 14.6379 16.3718 13.7728 16.7876C12.9077 17.2035 11.9598 17.4185 11 17.4167Z" fill="#818181"/>
</svg>
