<svg width="24" height="24" viewBox="0 0 24 24" fill="none" xmlns="http://www.w3.org/2000/svg">
<g clip-path="url(#clip0_824_260)">
<path d="M12 10.2357C11.268 10.2357 10.68 10.8237 10.68 11.5557C10.68 12.2877 11.268 12.8757 12 12.8757C12.732 12.8757 13.32 12.2877 13.32 11.5557C13.32 10.8237 12.732 10.2357 12 10.2357ZM12 -0.444336C5.37598 -0.444336 -2.28882e-05 4.93166 -2.28882e-05 11.5557C-2.28882e-05 18.1797 5.37598 23.5557 12 23.5557C18.624 23.5557 24 18.1797 24 11.5557C24 4.93166 18.624 -0.444336 12 -0.444336ZM14.628 14.1837L4.79998 18.7557L9.37198 8.92766L19.2 4.35566L14.628 14.1837Z" fill="#F3B507"/>
</g>
<defs>
<clipPath id="clip0_824_260">
<rect width="24" height="24" fill="#F3B507"/>
</clipPath>
</defs>
</svg>
